<?xml version="1.0" standalone="no"?>
<!DOCTYPE svg PUBLIC "-//W3C//DTD SVG 20010904//EN"
 "http://www.w3.org/TR/2001/REC-SVG-20010904/DTD/svg10.dtd">
<svg version="1.0" xmlns="http://www.w3.org/2000/svg"
 width="900.000000pt" height="498.000000pt" viewBox="0 0 900.000000 498.000000"
 preserveAspectRatio="xMidYMid meet">
<metadata>
Created by potrace 1.10, written by Peter Selinger 2001-2011
</metadata>
<g transform="translate(0.000000,498.000000) scale(0.100000,-0.100000)"
fill="#333333" stroke="none">
<path d="M5441 4774 c-20 -15 -22 -23 -19 -78 2 -33 9 -81 16 -106 29 -110 44
-200 38 -222 -3 -12 -33 -44 -66 -69 l-60 -47 -63 20 c-93 29 -102 37 -115
110 -6 35 -18 92 -27 128 -8 36 -19 84 -24 108 -9 46 -42 82 -75 82 -56 0
-189 -162 -235 -285 -27 -74 -38 -204 -23 -298 26 -164 151 -336 297 -406 39
-19 81 -40 95 -47 26 -13 34 -38 75 -229 9 -44 23 -107 30 -140 7 -33 21 -98
30 -145 9 -47 23 -108 31 -136 8 -28 14 -59 14 -69 0 -10 6 -46 14 -79 7 -34
21 -97 31 -141 9 -44 23 -107 30 -140 7 -33 21 -98 30 -145 29 -153 88 -235
192 -273 113 -41 233 0 301 102 47 72 56 125 37 229 -9 48 -20 101 -25 117 -5
17 -16 68 -25 115 -9 47 -23 114 -30 150 -8 36 -21 101 -30 145 -9 44 -23 107
-30 140 -17 75 -33 150 -51 240 -7 39 -20 102 -29 140 -48 204 -48 229 1 268
26 20 124 165 124 183 0 6 6 24 14 40 7 16 19 67 26 114 37 255 -118 513 -369
615 -71 29 -98 31 -130 9z m238 -246 c75 -79 131 -206 131 -301 0 -125 -60
-253 -162 -345 -56 -50 -71 -84 -59 -130 5 -20 17 -73 26 -117 9 -44 22 -107
30 -140 7 -33 20 -94 28 -135 9 -41 23 -106 31 -145 33 -160 47 -226 72 -340
15 -66 30 -142 35 -170 5 -27 13 -68 18 -90 39 -159 44 -195 32 -235 -25 -85
-137 -116 -203 -57 -27 23 -52 91 -63 167 -3 25 -10 59 -15 75 -4 17 -15 64
-24 105 -9 41 -21 98 -26 125 -6 28 -13 61 -16 75 -13 66 -37 181 -49 240 -8
36 -21 99 -30 140 -9 41 -22 104 -30 140 -7 36 -21 101 -30 145 -41 195 -48
217 -80 237 -16 10 -37 18 -46 18 -9 0 -48 16 -87 35 -177 89 -282 299 -237
475 31 123 62 177 87 152 4 -4 14 -41 22 -82 31 -163 41 -180 119 -201 23 -6
50 -15 59 -20 23 -11 93 -30 141 -36 50 -7 83 15 225 153 57 56 60 67 38 154
-8 30 -17 79 -21 108 -6 48 -5 52 14 52 11 0 42 -22 70 -52z"/>
<path d="M4217 4023 c-16 -16 -4 -42 39 -83 44 -44 104 -127 117 -162 4 -13
-6 -30 -33 -56 -74 -74 -74 -170 0 -244 27 -27 47 -39 71 -40 138 -7 199 44
199 165 0 75 -38 127 -112 155 -48 18 -56 25 -83 78 -16 32 -59 88 -95 126
-60 63 -86 78 -103 61z"/>
<path d="M4825 3728 c-33 -11 -76 -27 -95 -36 -35 -17 -35 -17 -32 -77 8 -145
-103 -265 -246 -265 -96 0 -158 36 -221 127 -25 37 -7 40 -236 -41 -71 -26
-182 -64 -245 -86 -63 -21 -153 -53 -200 -69 -47 -17 -87 -31 -90 -31 -3 0 2
-5 10 -10 16 -11 1657 -14 1684 -4 9 4 16 18 16 34 0 38 -29 163 -41 175 -5 5
-9 15 -9 22 0 49 -182 284 -219 282 -9 0 -43 -9 -76 -21z"/>
<path d="M3407 3143 c-4 -3 -7 -77 -7 -164 0 -134 2 -158 16 -163 24 -9 1727
-7 1742 2 9 7 12 47 10 168 l-3 159 -876 3 c-481 1 -879 -1 -882 -5z"/>
<path d="M3414 2727 c-11 -7 -14 -47 -14 -227 0 -219 0 -220 23 -225 12 -3
409 -4 882 -3 l860 3 3 228 c2 211 1 227 -15 228 -93 6 -1728 2 -1739 -4z"/>
<path d="M2805 1946 c-108 -23 -161 -69 -185 -164 -13 -49 -12 -54 7 -80 11
-15 28 -27 39 -27 15 0 18 10 21 73 3 77 26 125 66 138 37 12 41 -10 22 -103
-10 -48 -21 -106 -25 -128 -4 -22 -12 -60 -18 -85 -6 -25 -18 -75 -26 -112 -9
-36 -16 -78 -16 -92 0 -24 3 -26 49 -26 28 0 53 4 56 10 3 5 10 33 15 62 22
120 39 198 50 218 9 16 21 20 64 20 40 0 55 4 60 16 10 26 -2 34 -50 34 -55 0
-61 11 -44 93 18 85 20 87 95 80 55 -5 65 -3 84 16 11 11 21 30 21 41 0 17 -6
20 -42 18 -24 -1 -74 1 -113 4 -44 4 -93 2 -130 -6z"/>
<path d="M4614 1946 c-55 -17 -77 -34 -120 -90 -51 -67 -84 -156 -95 -261 -18
-170 14 -243 118 -266 69 -16 137 0 208 47 l49 33 31 -37 c29 -32 37 -36 81
-36 37 1 59 7 89 28 l39 27 19 -25 c24 -33 63 -40 117 -21 30 10 47 12 54 5 5
-5 31 -10 58 -10 52 0 68 15 68 64 0 15 7 53 16 86 14 48 22 61 45 71 52 21
59 9 59 -90 0 -114 13 -135 87 -135 40 0 57 6 83 27 38 32 44 33 69 6 55 -59
194 -38 264 40 39 45 33 56 -13 22 -47 -34 -97 -45 -134 -31 -25 9 -27 14 -24
57 3 46 4 47 46 60 83 24 132 81 132 155 0 40 -4 50 -26 65 -57 37 -148 9
-202 -62 -37 -49 -72 -139 -72 -187 -1 -37 -25 -72 -57 -82 -33 -10 -43 19
-36 102 6 77 9 73 -66 130 l-24 18 45 29 c52 33 78 65 52 65 -22 0 -53 -18
-99 -57 -59 -50 -63 -53 -76 -53 -14 0 -8 64 15 173 9 44 14 83 10 88 -10 16
-73 10 -93 -10 -10 -10 -22 -40 -25 -67 -4 -27 -14 -74 -21 -104 -13 -53 -43
-192 -51 -237 -6 -34 -54 -84 -77 -81 -46 7 -45 38 10 255 9 34 13 69 10 77
-7 18 -61 22 -101 7 -16 -7 -34 -6 -54 1 -46 18 -108 -5 -157 -57 -41 -43 -75
-119 -75 -165 0 -33 -30 -77 -70 -101 -24 -15 -46 -19 -93 -17 -57 3 -63 5
-84 37 -30 44 -31 137 -4 244 38 146 99 237 161 237 37 0 54 -22 46 -62 -12
-62 -11 -72 7 -76 29 -6 57 27 57 66 0 50 -31 87 -84 101 -54 13 -60 13 -112
-3z m1291 -255 c15 -48 -44 -141 -90 -141 -32 0 -34 7 -16 56 32 82 91 130
106 85z m-858 -7 c7 -19 -13 -142 -35 -205 -9 -30 -25 -52 -42 -62 -24 -15
-29 -15 -50 0 -21 15 -22 21 -16 90 6 71 29 137 64 176 19 22 70 23 79 1z"/>
<path d="M3532 1892 c-11 -11 -23 -39 -26 -63 -7 -45 -26 -135 -52 -245 -8
-33 -14 -68 -14 -78 0 -9 -9 -35 -20 -56 -22 -43 -60 -61 -85 -40 -19 16 -19
39 -1 109 31 120 48 210 41 220 -8 14 -63 14 -104 0 -24 -9 -35 -9 -44 0 -31
31 -126 -4 -174 -66 -46 -60 -65 -118 -65 -206 0 -72 2 -81 25 -105 34 -34
114 -37 149 -5 41 36 49 37 73 7 18 -22 30 -28 59 -27 21 1 51 7 67 13 23 10
33 10 42 1 14 -14 103 -15 112 -1 3 6 10 31 15 58 22 120 30 140 60 152 53 22
60 11 60 -93 0 -114 11 -129 89 -129 40 0 57 5 81 26 38 31 44 32 69 5 57 -61
198 -37 269 45 34 41 26 49 -18 17 -74 -53 -154 -50 -162 7 -7 46 7 69 43 77
80 18 139 84 139 157 0 99 -111 114 -205 27 -49 -45 -95 -145 -95 -207 -1 -59
-54 -107 -85 -76 -12 12 -13 30 -8 89 6 80 9 75 -66 133 l-24 18 45 29 c52 33
78 65 52 65 -8 0 -25 -5 -37 -12 -26 -13 -111 -80 -115 -90 -2 -5 -10 -8 -18
-8 -18 0 -18 60 0 121 8 25 16 68 18 95 l3 49 -37 3 c-26 2 -43 -3 -56 -16z
m573 -237 c-7 -48 -58 -105 -92 -105 -13 0 -23 5 -23 11 0 34 28 96 57 127 28
30 35 33 49 21 12 -10 14 -23 9 -54z m-858 29 c7 -18 -13 -138 -33 -204 -25
-76 -95 -104 -110 -43 -16 64 17 192 64 246 19 22 70 23 79 1z"/>
<path d="M610 1191 c-81 -19 -171 -87 -196 -147 -22 -53 -18 -101 11 -120 35
-23 45 -11 45 53 0 66 22 107 82 155 38 30 46 32 120 33 77 0 81 -1 104 -30
19 -24 24 -42 24 -92 0 -90 -33 -147 -112 -196 -26 -16 -27 -16 -33 4 -4 11 0
48 8 82 49 202 49 191 -9 183 -26 -3 -52 -11 -59 -16 -7 -6 -18 -38 -24 -73
-7 -34 -16 -75 -21 -92 -5 -16 -12 -48 -15 -70 -7 -47 -31 -157 -51 -235 -8
-30 -10 -58 -5 -63 4 -4 30 -7 56 -5 47 3 48 4 61 48 8 25 18 73 23 108 6 35
15 69 21 77 6 7 35 19 63 25 144 30 230 186 166 300 -11 20 -34 45 -50 54 -34
20 -154 30 -209 17z"/>
<path d="M4282 1189 c-66 -19 -156 -141 -184 -246 -4 -18 -12 -50 -18 -70 -5
-21 -10 -72 -10 -113 0 -59 5 -85 23 -120 35 -69 64 -85 155 -85 80 0 123 16
195 69 l29 21 20 -28 c44 -60 124 -74 192 -32 42 26 93 93 102 134 3 15 12 45
21 69 13 36 19 42 44 42 23 0 29 -4 29 -22 0 -22 -20 -122 -40 -195 -10 -42 5
-55 62 -51 48 3 43 -8 83 183 30 139 69 199 110 165 17 -14 20 -67 6 -103 -6
-14 -13 -63 -17 -110 -6 -83 -6 -86 19 -111 32 -32 89 -35 132 -6 38 25 50 25
87 -1 24 -17 40 -21 87 -17 48 3 69 12 129 52 72 48 92 51 92 15 0 -11 11 -31
25 -44 28 -29 89 -34 121 -10 25 19 48 19 64 0 9 -11 27 -15 59 -13 52 3 49
-1 76 133 36 177 49 213 83 222 20 5 30 0 47 -20 24 -32 45 -34 68 -9 19 21
21 45 7 73 -8 14 -21 19 -50 19 -21 0 -42 -4 -45 -10 -9 -15 -51 -12 -65 5
-17 20 -74 19 -91 -1 -14 -17 -57 -189 -58 -231 -1 -35 -41 -93 -69 -100 -58
-14 -68 26 -37 152 8 33 17 77 20 98 3 21 15 47 25 57 17 17 18 24 8 45 -9 20
-9 34 0 59 23 61 18 70 -35 62 -26 -3 -52 -11 -58 -17 -14 -14 -47 -109 -49
-144 -6 -93 -40 -230 -64 -257 -38 -44 -46 -20 -57 157 -8 141 -12 155 -40
155 -63 0 -85 -12 -105 -58 -11 -24 -20 -52 -20 -62 0 -10 -7 -23 -15 -30 -8
-7 -15 -18 -15 -24 0 -18 -35 -82 -64 -116 -14 -17 -26 -40 -26 -50 0 -10 -7
-21 -16 -24 -53 -20 -81 11 -64 72 6 20 17 71 25 111 14 69 13 78 -3 110 -22
45 -63 57 -124 37 -37 -13 -44 -13 -58 -1 -22 20 -85 19 -104 -1 -9 -8 -16
-27 -16 -42 -1 -42 -31 -74 -65 -70 -24 2 -31 10 -44 50 -19 55 -25 61 -68 76
-25 8 -44 8 -82 -4 -85 -25 -141 -101 -175 -234 -17 -71 -34 -89 -103 -116
-49 -19 -95 -13 -133 16 -24 18 -25 22 -25 142 1 124 6 152 53 258 39 90 103
136 152 110 20 -11 22 -17 15 -76 -7 -64 -7 -64 19 -64 20 0 30 8 42 33 22 47
2 106 -46 129 -38 20 -114 22 -168 7z m450 -251 c3 -7 4 -54 2 -105 -2 -69 -8
-101 -23 -132 -24 -45 -63 -76 -86 -67 -58 22 -27 214 46 293 24 25 54 30 61
11z m710 -128 c14 -94 10 -133 -17 -163 -33 -34 -79 -37 -96 -5 -10 19 -9 24
10 36 15 11 21 25 21 52 0 21 7 51 14 67 8 15 17 36 20 46 11 36 41 15 48 -33z"/>
<path d="M1882 1154 c-46 -32 -17 -104 43 -104 51 0 73 62 35 100 -24 24 -48
25 -78 4z"/>
<path d="M7390 1150 c-54 -54 12 -126 81 -90 28 15 26 74 -3 94 -30 21 -54 20
-78 -4z"/>
<path d="M3265 989 c-77 -18 -142 -98 -170 -211 -24 -94 -15 -147 31 -187 58
-51 151 -41 242 27 33 25 34 25 36 -28 1 -22 6 -25 47 -28 56 -4 63 4 77 83
27 149 45 211 68 242 30 40 48 41 70 8 15 -23 15 -30 1 -88 -26 -102 -31 -163
-17 -197 16 -38 37 -50 89 -50 48 0 98 38 130 100 26 51 12 59 -24 15 -29 -38
-64 -46 -85 -20 -10 12 -8 38 10 134 23 118 23 120 4 152 -26 44 -63 55 -122
36 -42 -14 -48 -14 -64 0 -13 11 -29 14 -59 10 -22 -3 -43 -7 -45 -9 -4 -5
-17 -61 -38 -176 -16 -86 -47 -131 -109 -161 -56 -27 -88 -27 -115 2 -31 33
-28 97 5 97 47 0 128 59 161 117 28 51 2 133 -42 133 -8 0 -20 2 -28 4 -7 2
-31 0 -53 -5z m75 -59 c22 -42 -52 -150 -104 -150 -22 0 -20 35 5 90 36 79 76
103 99 60z"/>
<path d="M6789 984 c-84 -25 -151 -124 -168 -246 -9 -67 -33 -100 -70 -96 -25
3 -26 5 -24 71 0 37 6 81 12 99 6 17 16 61 22 96 11 73 6 82 -48 82 -42 0 -60
-21 -69 -78 -3 -26 -13 -72 -20 -102 -8 -30 -14 -63 -14 -75 0 -30 -48 -95
-69 -95 -10 0 -24 7 -31 15 -12 15 -11 23 34 247 15 75 10 88 -37 88 -46 0
-65 -16 -72 -62 -4 -24 -13 -65 -20 -93 -40 -156 -40 -211 2 -257 27 -30 92
-24 133 12 36 30 60 38 60 20 0 -5 9 -19 20 -30 31 -31 88 -26 138 10 23 16
45 30 49 30 5 -1 24 -14 43 -30 28 -24 43 -30 83 -30 54 0 119 26 160 64 15
14 31 26 35 26 4 0 16 -14 27 -31 11 -17 32 -37 47 -45 61 -32 170 -6 225 52
27 29 40 30 48 5 12 -39 53 -71 90 -71 38 0 115 34 115 50 0 16 36 12 51 -6
41 -49 119 -57 185 -18 58 34 84 72 110 164 21 72 23 75 54 78 l32 3 -7 -63
c-4 -35 -11 -71 -16 -80 -6 -10 -11 -42 -12 -70 l-2 -53 47 -3 c56 -4 57 -2
82 123 29 143 36 170 54 194 64 87 106 15 67 -113 -8 -27 -15 -73 -15 -102 0
-44 5 -58 25 -79 36 -35 90 -34 141 3 48 35 84 96 67 113 -10 10 -15 6 -22
-14 -11 -28 -39 -47 -70 -47 -27 0 -35 34 -23 96 6 27 16 76 23 110 10 50 9
65 -2 90 -22 45 -58 58 -123 43 -39 -8 -58 -9 -74 0 -31 16 -77 13 -94 -6 -9
-10 -18 -34 -22 -54 -8 -45 -26 -61 -63 -57 -22 2 -29 9 -34 35 -16 80 -74
112 -159 87 -50 -15 -108 -65 -130 -113 -7 -14 -17 -34 -22 -44 -5 -10 -12
-42 -15 -70 -8 -68 -27 -105 -60 -113 -36 -9 -58 7 -57 42 2 32 20 130 36 186
6 20 11 53 12 75 1 37 0 38 -36 41 -47 4 -78 -12 -78 -41 0 -20 -19 -111 -41
-197 -12 -45 -46 -83 -97 -109 -49 -25 -80 -26 -110 -5 -18 12 -22 25 -22 69
0 109 66 250 113 243 17 -2 23 -11 25 -40 2 -28 8 -38 21 -38 41 0 55 51 24
89 -46 55 -153 40 -215 -30 -39 -44 -75 -125 -85 -189 -13 -84 -149 -154 -196
-102 -49 54 19 312 83 312 20 0 42 -37 37 -63 -1 -6 8 -13 20 -15 17 -2 24 3
29 22 19 78 -43 119 -137 90z m985 -50 c20 -19 20 -18 1 -55 -12 -23 -13 -34
-4 -50 24 -46 -22 -169 -71 -189 -47 -19 -60 -1 -60 79 0 75 23 146 64 197 30
38 47 42 70 18z"/>
<path d="M1049 982 c-36 -4 -105 -65 -130 -115 -22 -44 -51 -168 -44 -190 2
-7 6 -24 9 -39 17 -78 112 -103 181 -48 21 17 41 30 44 30 4 0 17 -13 29 -30
19 -25 30 -30 64 -30 40 0 108 32 108 51 0 17 22 9 57 -21 26 -23 43 -30 76
-30 23 0 51 7 61 15 23 17 36 19 36 5 0 -17 -34 -50 -50 -50 -9 0 -33 -15 -53
-34 -70 -64 -38 -146 57 -146 72 0 146 71 146 140 0 36 19 59 76 96 l55 35 28
-30 c23 -24 37 -31 68 -31 21 0 49 7 62 16 22 16 25 16 51 0 34 -20 93 -21
109 -2 10 12 44 149 58 236 13 78 71 133 100 94 17 -23 17 -34 -7 -154 -22
-108 -21 -123 11 -164 30 -38 92 -36 148 5 l42 30 35 -30 c47 -42 96 -42 152
-1 43 31 62 37 62 20 0 -6 9 -19 20 -30 47 -47 158 -5 196 75 23 49 13 52 -29
10 -41 -41 -52 -43 -71 -12 -15 23 -11 59 28 236 20 91 13 106 -48 97 -23 -3
-54 -5 -71 -4 -86 5 -118 0 -158 -28 -49 -35 -95 -116 -108 -193 -14 -81 -28
-110 -55 -117 -58 -15 -73 16 -48 98 24 81 25 201 2 225 -21 21 -109 23 -132
4 -14 -12 -19 -11 -34 3 -22 19 -82 21 -104 4 -9 -7 -19 -29 -22 -48 -26 -167
-56 -264 -87 -280 -26 -14 -55 -12 -69 5 -13 16 -2 99 25 195 20 69 25 116 12
129 -15 15 -69 14 -90 -1 -9 -7 -21 -38 -26 -68 -31 -181 -50 -239 -95 -287
-66 -72 -70 -26 -15 197 25 99 30 153 17 162 -17 10 -69 10 -86 -1 -7 -4 -32
-4 -55 2 -120 27 -232 -83 -252 -247 -10 -87 -67 -135 -98 -84 -12 17 -1 94
29 213 9 33 14 74 12 90 l-3 30 -100 0 c-55 0 -112 -1 -126 -3z m95 -51 c17
-19 17 -24 1 -93 -40 -173 -56 -203 -108 -196 -12 2 -28 15 -35 30 -28 58 30
232 87 263 34 18 35 18 55 -4z m451 6 c15 -11 17 -22 12 -58 -24 -170 -55
-239 -107 -239 -41 0 -54 29 -45 104 8 71 46 157 82 186 30 24 34 24 58 7z
m1110 -4 c18 -17 17 -38 -5 -143 -24 -111 -50 -150 -99 -150 -32 0 -44 34 -36
107 8 80 36 143 76 177 36 31 42 31 64 9z m-1185 -455 c-1 -33 -33 -71 -56
-66 -28 5 -29 36 -3 64 29 31 59 32 59 2z"/>
</g>
</svg>
